<?xml version="1.0" encoding="utf-8"?>
<!-- Generator: Adobe Illustrator 15.0.0, SVG Export Plug-In . SVG Version: 6.00 Build 0)  -->
<!DOCTYPE svg PUBLIC "-//W3C//DTD SVG 1.1//EN" "http://www.w3.org/Graphics/SVG/1.1/DTD/svg11.dtd">
<svg version="1.1" id="Calque_3" xmlns="http://www.w3.org/2000/svg" xmlns:xlink="http://www.w3.org/1999/xlink" x="0px" y="0px"
	 width="240.94px" height="155.91px" viewBox="0 0 240.94 155.91" enable-background="new 0 0 240.94 155.91" xml:space="preserve">
<g>
	<path fill="#E75A0E" d="M191.828,143.983l0.85-0.51c0.599,1.102,1.288,1.652,2.073,1.652c0.335,0,0.649-0.079,0.944-0.234
		c0.295-0.156,0.52-0.366,0.672-0.629c0.155-0.264,0.232-0.541,0.232-0.836c0-0.335-0.113-0.664-0.34-0.985
		c-0.313-0.444-0.884-0.979-1.712-1.604c-0.835-0.63-1.353-1.084-1.558-1.365c-0.354-0.472-0.53-0.981-0.53-1.53
		c0-0.435,0.105-0.83,0.314-1.188c0.206-0.358,0.501-0.64,0.879-0.847c0.378-0.206,0.79-0.309,1.232-0.309
		c0.472,0,0.912,0.117,1.322,0.351c0.411,0.233,0.844,0.662,1.303,1.287l-0.817,0.618c-0.375-0.498-0.695-0.826-0.961-0.985
		c-0.265-0.159-0.554-0.237-0.866-0.237c-0.404,0-0.732,0.122-0.988,0.366c-0.257,0.246-0.384,0.546-0.384,0.903
		c0,0.218,0.045,0.43,0.135,0.633c0.092,0.203,0.257,0.426,0.496,0.667c0.132,0.126,0.562,0.46,1.293,0.998
		c0.863,0.639,1.458,1.208,1.779,1.706c0.322,0.498,0.482,0.999,0.482,1.501c0,0.726-0.275,1.355-0.826,1.891
		c-0.55,0.534-1.218,0.801-2.008,0.801c-0.607,0-1.157-0.162-1.65-0.485C192.7,145.288,192.245,144.744,191.828,143.983z"/>
	<path fill="#E75A0E" d="M198.802,136.828v-0.979h5.478v0.979h-2.229v9.018h-1.021v-9.018H198.802z"/>
	<path fill="#E75A0E" d="M205.754,135.849h0.998v6.035c0,0.716,0.015,1.162,0.042,1.339c0.049,0.395,0.165,0.725,0.347,0.987
		c0.18,0.267,0.46,0.488,0.836,0.667c0.377,0.18,0.754,0.269,1.135,0.269c0.33,0,0.647-0.07,0.951-0.211s0.559-0.335,0.762-0.585
		c0.203-0.249,0.353-0.55,0.447-0.902c0.069-0.254,0.103-0.775,0.103-1.563v-6.035h0.999v6.035c0,0.892-0.087,1.613-0.261,2.165
		c-0.176,0.55-0.524,1.029-1.048,1.437c-0.523,0.408-1.155,0.611-1.898,0.611c-0.808,0-1.498-0.191-2.073-0.577
		c-0.576-0.385-0.961-0.895-1.155-1.529c-0.123-0.39-0.184-1.092-0.184-2.106V135.849z"/>
	<path fill="#E75A0E" d="M214.833,145.846v-9.997h2.073c1.496,0,2.58,0.119,3.255,0.36c0.971,0.34,1.728,0.929,2.274,1.767
		c0.545,0.839,0.817,1.837,0.817,2.998c0,1.001-0.216,1.883-0.649,2.644c-0.432,0.762-0.994,1.323-1.686,1.686
		c-0.689,0.361-1.659,0.543-2.904,0.543H214.833z M215.792,144.901h1.155c1.381,0,2.339-0.086,2.874-0.259
		c0.752-0.243,1.344-0.685,1.773-1.32c0.431-0.636,0.646-1.414,0.646-2.331c0-0.966-0.232-1.789-0.699-2.474
		c-0.467-0.682-1.117-1.151-1.95-1.405c-0.625-0.189-1.656-0.284-3.093-0.284h-0.706V144.901z"/>
	<path fill="#E75A0E" d="M225.047,135.849h0.999v9.997h-0.999V135.849z"/>
	<path fill="#E75A0E" d="M233.097,135.598c1.514,0,2.78,0.505,3.801,1.515c1.021,1.012,1.53,2.255,1.53,3.731
		c0,1.463-0.509,2.705-1.526,3.724c-1.018,1.021-2.258,1.529-3.723,1.529c-1.484,0-2.734-0.508-3.755-1.521
		c-1.021-1.015-1.53-2.242-1.53-3.684c0-0.96,0.233-1.85,0.696-2.671c0.466-0.819,1.1-1.462,1.902-1.927
		C231.294,135.83,232.162,135.598,233.097,135.598z M233.141,136.568c-0.739,0-1.441,0.193-2.104,0.579
		c-0.662,0.385-1.18,0.904-1.553,1.557c-0.371,0.653-0.559,1.381-0.559,2.184c0,1.188,0.413,2.191,1.236,3.01
		c0.824,0.818,1.816,1.229,2.979,1.229c0.775,0,1.495-0.188,2.154-0.565c0.661-0.376,1.175-0.891,1.544-1.544
		c0.372-0.652,0.557-1.378,0.557-2.176c0-0.793-0.185-1.512-0.557-2.153c-0.369-0.641-0.89-1.155-1.561-1.54
		C234.606,136.762,233.895,136.568,233.141,136.568z"/>
</g>
<g id="Calque_2">
	<g>
		<path d="M74.704,5.179c20.511,0,37.675,6.844,51.493,20.529c13.818,13.687,20.729,30.534,20.729,50.541
			c0,19.823-6.895,36.64-20.683,50.448c-13.787,13.811-30.598,20.714-50.434,20.714c-20.083,0-37.033-6.872-50.851-20.622
			C11.14,113.042,4.232,96.411,4.232,76.893c0-13.01,3.147-25.07,9.442-36.18C19.968,29.606,28.55,20.907,39.42,14.615
			C50.291,8.325,62.05,5.179,74.704,5.179z M75.302,18.343c-10.021,0-19.518,2.611-28.493,7.833
			c-8.976,5.222-15.984,12.253-21.024,21.097c-5.04,8.845-7.561,18.702-7.561,29.573c0,16.094,5.578,29.685,16.735,40.771
			c11.157,11.087,24.604,16.63,40.343,16.63c10.51,0,20.239-2.549,29.183-7.646c8.944-5.099,15.921-12.069,20.93-20.915
			c5.011-8.844,7.517-18.671,7.517-29.483c0-10.747-2.506-20.468-7.517-29.159c-5.009-8.691-12.064-15.646-21.16-20.867
			C95.157,20.954,85.506,18.343,75.302,18.343z"/>
	</g>
	<polygon points="146.161,112.237 161.794,112.237 161.794,118.833 	"/>
	<polyline fill="#12100B" points="152.537,125.907 161.124,125.907 161.124,132.348 152.462,132.348 152.287,132.348 
		151.99,125.907 152.537,125.907 	"/>
	<polyline fill="#12100B" points="145.769,145.389 146.161,112.237 161.794,118.833 152.622,118.833 152.368,118.833 
		152.206,145.389 	"/>
	<polygon fill="#12100B" points="161.577,118.28 161.794,118.833 151.087,117.647 146.161,112.237 153.358,112.786 	"/>
	<polygon fill="#12100B" points="164.778,112.237 180.412,112.237 180.412,118.833 	"/>
	<polyline fill="#12100B" points="171.155,125.907 179.741,125.907 179.741,132.348 171.079,132.348 170.904,132.348 
		170.609,125.907 171.155,125.907 	"/>
	<polyline fill="#12100B" points="164.384,145.389 164.778,112.237 180.412,118.833 171.238,118.833 170.982,118.833 
		170.828,145.389 	"/>
	<polygon fill="#12100B" points="180.194,118.28 180.412,118.833 169.707,117.647 164.778,112.237 171.976,112.786 	"/>
	<polyline points="92.19,94.758 99.337,96.957 104.72,78.576 109.627,64.629 101.972,62.352 	"/>
	<polygon fill="#2C2523" points="104.72,78.576 105.192,78.73 109.627,64.629 	"/>
	<polygon points="109.627,64.629 110.464,84.77 106.016,98.881 105.192,78.73 	"/>
	<polygon points="109.627,64.629 103.22,70.732 104.72,78.576 105.339,78.73 109.627,66.239 	"/>
	<polygon points="105.958,98.881 113.618,101.178 123.435,68.804 110.905,84.99 109.699,85.918 	"/>
	<polygon points="110.968,84.891 116.312,66.596 123.496,68.804 122.928,70.1 117.231,82.398 110.949,85.153 	"/>
	<polygon fill="#2C2523" points="111.113,84.99 110.464,84.77 110.525,85.153 	"/>
	<path fill="#2C2523" d="M115.549,82.251"/>
	<polygon points="116.312,66.596 110.849,84.99 112.982,85.079 112.57,85.347 	"/>
	<polygon points="109.786,84.563 111.38,85.013 110.245,85.905 	"/>
	<path fill="#2C2523" d="M111.685,87.085"/>
</g>
</svg>
